<svg width="44" height="44" viewBox="0 0 44 44" fill="none" xmlns="http://www.w3.org/2000/svg">
  <rect width="44" height="44" rx="10" fill="#2F8F5E"/>
  <path d="M22 8C22 8 18 14 18 18C18 21.3137 19.7909 24 22 24C24.2091 24 26 21.3137 26 18C26 14 22 8 22 8Z" fill="white" opacity="0.8"/>
  <path d="M16 26C16 26 14 28 14 30C14 31.1046 15.3431 32 17 32C18.6569 32 20 31.1046 20 30C20 28 16 26 16 26Z" fill="white" opacity="0.6"/>
  <path d="M28 26C28 26 26 28 26 30C26 31.1046 27.3431 32 29 32C30.6569 32 32 31.1046 32 30C32 28 28 26 28 26Z" fill="white" opacity="0.6"/>
</svg>
